<svg width="512" height="512" viewBox="0 0 512 512" fill="none" xmlns="http://www.w3.org/2000/svg">
<path fill-rule="evenodd" clip-rule="evenodd" d="M462 176.314C462 171.423 462.002 166.531 461.972 161.64C461.947 157.519 461.9 153.4 461.788 149.281C461.546 140.305 461.016 131.251 459.42 122.375C457.801 113.37 455.157 104.99 450.991 96.8083C446.895 88.7669 441.544 81.4084 435.16 75.0289C428.778 68.6494 421.417 63.3024 413.373 59.209C405.183 55.0415 396.793 52.3985 387.779 50.78C378.902 49.186 369.846 48.6575 360.869 48.415C356.748 48.3035 352.626 48.2565 348.504 48.231C343.61 48.201 338.716 48.2035 333.822 48.2035L276.998 48H234.499L178.681 48.2035C173.777 48.2035 168.874 48.201 163.97 48.231C159.839 48.2565 155.71 48.3035 151.581 48.415C142.583 48.6575 133.507 49.1865 124.608 50.7825C115.582 52.4005 107.18 55.0425 98.9791 59.207C90.9177 63.3009 83.5413 68.6484 77.1453 75.0289C70.7503 81.4079 65.3899 88.7649 61.2864 96.8048C57.1084 104.99 54.4595 113.376 52.8365 122.385C51.2385 131.258 50.709 140.309 50.4655 149.281C50.3545 153.4 50.3065 157.52 50.2815 161.64C50.2515 166.532 50 172.608 50 177.5L50.0015 232.544L50 275.499L50.254 331.713C50.254 336.611 50.252 341.509 50.2815 346.407C50.3065 350.533 50.3545 354.658 50.466 358.783C50.709 367.771 51.2395 376.837 52.839 385.726C54.4615 394.742 57.1099 403.135 61.2844 411.327C65.3884 419.38 70.7498 426.748 77.1453 433.136C83.5408 439.525 90.9152 444.879 98.9751 448.978C107.181 453.151 115.587 455.798 124.619 457.418C133.513 459.014 142.587 459.544 151.581 459.786C155.71 459.898 159.84 459.945 163.971 459.97C168.874 460 173.777 459.999 178.681 459.999L235.003 460H277.608L333.822 459.998C338.716 459.998 343.61 460 348.504 459.97C352.626 459.945 356.748 459.898 360.869 459.786C369.849 459.543 378.908 459.014 387.789 457.416C396.798 455.796 405.184 453.15 413.369 448.98C421.415 444.881 428.777 439.526 435.16 433.136C441.543 426.749 446.893 419.382 450.989 411.33C455.158 403.134 457.802 394.738 459.422 385.715C461.017 376.83 461.546 367.767 461.788 358.783C461.9 354.658 461.947 350.533 461.972 346.407C462.002 341.509 462 336.611 462 331.713C462 331.713 461.997 276.492 461.997 275.499V232.499C461.997 231.766 462 176.314 462 176.314" fill="#313245"/>
<path d="M409.891 256.04C409.891 295.283 378.074 327.1 338.83 327.1C299.587 327.1 267.769 295.283 267.769 256.04C267.769 216.79 299.587 184.979 338.83 184.979C378.074 184.979 409.891 216.79 409.891 256.04Z" fill="#F16583"/>
<path d="M255.926 330.061C296.81 330.061 329.948 296.917 329.948 256.04C329.948 215.156 296.81 182.018 255.926 182.018C215.042 182.018 181.904 215.156 181.904 256.04C181.904 296.917 215.042 330.061 255.926 330.061Z" fill="#F16583" stroke="#313245"/>
<path d="M174.472 330.061C214.486 330.061 246.8 296.852 246.8 256.04C246.8 215.221 214.486 182.018 174.472 182.018C134.459 182.018 102.138 215.215 102.138 256.04C102.138 296.852 134.459 330.061 174.472 330.061Z" fill="#313245" stroke="#313245"/>
<path fill-rule="evenodd" clip-rule="evenodd" d="M174.472 301.892C199.19 301.892 219.235 281.361 219.235 256.034C219.235 230.712 199.19 210.182 174.467 210.182C149.749 210.182 129.71 230.712 129.71 256.04C129.71 281.361 149.749 301.892 174.472 301.892ZM174.472 327.095C212.786 327.095 243.84 295.283 243.84 256.034C243.84 216.79 212.78 184.973 174.472 184.973C136.159 184.973 105.099 216.79 105.099 256.034C105.099 295.283 136.159 327.095 174.472 327.095Z" fill="#F16583"/>
</svg>
