<svg width="412" height="412" viewBox="0 0 412 412" fill="none" xmlns="http://www.w3.org/2000/svg">
<path fill-rule="evenodd" clip-rule="evenodd" d="M412 128.314C412 123.423 412.002 118.531 411.972 113.64C411.947 109.519 411.9 105.4 411.788 101.281C411.546 92.3047 411.016 83.2512 409.42 74.3747C407.801 65.3703 405.157 56.9898 400.991 48.8083C396.895 40.7669 391.544 33.4084 385.16 27.0289C378.778 20.6494 371.417 15.3024 363.373 11.209C355.183 7.04147 346.793 4.39848 337.779 2.77999C328.902 1.186 319.846 0.657498 310.869 0.414999C306.748 0.303499 302.626 0.256499 298.504 0.230999C293.61 0.200999 288.716 0.203499 283.822 0.203499L226.998 0H184.499L128.681 0.203499C123.777 0.203499 118.874 0.200999 113.97 0.230999C109.839 0.256499 105.71 0.303499 101.581 0.414999C92.5833 0.657498 83.5069 1.1865 74.6084 2.78249C65.582 4.40048 57.1801 7.04247 48.9791 11.207C40.9177 15.3009 33.5413 20.6484 27.1453 27.0289C20.7503 33.4079 15.3899 40.7649 11.2864 48.8048C7.10845 56.9903 4.45947 65.3758 2.83648 74.3852C1.23849 83.2582 0.708995 92.3087 0.465497 101.281C0.354497 105.4 0.306498 109.52 0.281498 113.64C0.251498 118.532 0 124.608 0 129.5L0.00149999 184.544L0 227.499L0.253998 283.713C0.253998 288.611 0.251998 293.509 0.281498 298.407C0.306498 302.533 0.354497 306.658 0.465997 310.783C0.708995 319.771 1.23949 328.837 2.83898 337.726C4.46147 346.742 7.10995 355.135 11.2844 363.327C15.3884 371.38 20.7498 378.748 27.1453 385.136C33.5408 391.525 40.9152 396.879 48.9751 400.978C57.1811 405.151 65.587 407.798 74.6189 409.418C83.5134 411.014 92.5868 411.544 101.581 411.786C105.71 411.898 109.84 411.945 113.971 411.97C118.874 412 123.777 411.999 128.681 411.999L185.003 412H227.608L283.822 411.998C288.716 411.998 293.61 412 298.504 411.97C302.626 411.945 306.748 411.898 310.869 411.786C319.849 411.543 328.908 411.014 337.789 409.416C346.798 407.796 355.184 405.15 363.369 400.98C371.415 396.881 378.777 391.526 385.16 385.136C391.543 378.749 396.893 371.382 400.989 363.33C405.158 355.134 407.802 346.738 409.422 337.715C411.017 328.83 411.546 319.767 411.788 310.783C411.9 306.658 411.947 302.533 411.972 298.407C412.002 293.509 412 288.611 412 283.713C412 283.713 411.997 228.492 411.997 227.499V184.499C411.997 183.766 412 128.314 412 128.314" fill="#313245"/>
<path d="M359.891 208.04C359.891 247.283 328.073 279.1 288.83 279.1C249.587 279.1 217.769 247.283 217.769 208.04C217.769 168.79 249.587 136.979 288.83 136.979C328.073 136.979 359.891 168.79 359.891 208.04Z" fill="#F16583"/>
<path d="M205.926 282.061C246.81 282.061 279.948 248.917 279.948 208.04C279.948 167.156 246.81 134.018 205.926 134.018C165.042 134.018 131.904 167.156 131.904 208.04C131.904 248.917 165.042 282.061 205.926 282.061Z" fill="#F16583" stroke="#313245"/>
<path d="M124.472 282.061C164.486 282.061 196.801 248.852 196.801 208.04C196.801 167.221 164.486 134.018 124.472 134.018C84.4593 134.018 52.1385 167.215 52.1385 208.04C52.1385 248.852 84.4593 282.061 124.472 282.061Z" fill="#313245" stroke="#313245"/>
<path fill-rule="evenodd" clip-rule="evenodd" d="M124.472 253.892C149.19 253.892 169.235 233.361 169.235 208.034C169.235 182.712 149.19 162.182 124.467 162.182C99.7493 162.182 79.7101 182.712 79.7101 208.04C79.7101 233.361 99.7492 253.892 124.472 253.892ZM124.472 279.095C162.786 279.095 193.84 247.283 193.84 208.034C193.84 168.79 162.78 136.973 124.472 136.973C86.1589 136.973 55.0994 168.79 55.0994 208.034C55.0994 247.283 86.1589 279.095 124.472 279.095Z" fill="#F16583"/>
</svg>
