<svg width="512" height="512" viewBox="0 0 512 512" fill="none" xmlns="http://www.w3.org/2000/svg">
<rect width="512" height="512" rx="64" fill="#E1E2EA"/>
<path d="M328.836 179.587C328.836 217.477 298.325 248.192 260.687 248.192C223.05 248.192 192.539 217.477 192.539 179.587C192.539 141.698 223.05 110.983 260.687 110.983C298.325 110.983 328.836 141.698 328.836 179.587Z" fill="#F1EDFD"/>
<path fill-rule="evenodd" clip-rule="evenodd" d="M260.687 223.856C284.974 223.856 304.662 204.036 304.662 179.587C304.662 155.138 284.974 135.319 260.687 135.319C236.401 135.319 216.713 155.138 216.713 179.587C216.713 204.036 236.401 223.856 260.687 223.856ZM260.687 248.192C298.325 248.192 328.836 217.477 328.836 179.587C328.836 141.698 298.325 110.983 260.687 110.983C223.05 110.983 192.539 141.698 192.539 179.587C192.539 217.477 223.05 248.192 260.687 248.192Z" fill="#313245"/>
<ellipse cx="282.009" cy="180.348" rx="11.2409" ry="11.3161" fill="#6649F8"/>
<path fill-rule="evenodd" clip-rule="evenodd" d="M258.345 141.12C248.967 141.986 239.077 145.339 224.988 152.304L214.195 129.894C229.351 122.401 242.378 117.556 256.11 116.287C269.943 115.009 283.367 117.459 299.21 122.628L291.666 146.364C277.499 141.741 267.621 140.263 258.345 141.12Z" fill="#313245"/>
<path fill-rule="evenodd" clip-rule="evenodd" d="M395.43 299.549C416.538 292.986 434 272.014 434 247.157C434 217.044 409.321 192.633 381.374 192.633C353.427 192.633 328.748 217.044 328.748 247.157C328.748 270.35 344.211 290.16 363.157 298.04V381.728C363.157 382.837 363.614 383.897 364.421 384.66L379.525 398.936C381.118 400.441 383.621 400.407 385.172 398.86L412.921 371.175C414.502 369.598 414.502 367.041 412.921 365.464L399.417 351.991C397.836 350.414 397.836 347.857 399.417 346.28L417.981 327.759C419.562 326.182 419.562 323.624 417.981 322.047L395.43 299.549Z" fill="#6649F8"/>
<path d="M337.582 381.757C337.667 386.014 334.793 390.24 330.742 390.24H107.988C80.0009 390.24 74.2788 375.051 80.0012 351.035C91.5351 302.63 160.513 256.74 226.272 256.74C259.126 256.74 289.648 266.445 314.973 283.069C315.798 283.611 316.472 284.367 316.967 285.246C321.733 293.704 327.888 301.172 335.159 307.221C336.654 308.464 337.576 310.334 337.576 312.337V381.145C337.576 381.349 337.578 381.553 337.582 381.757Z" fill="#313245"/>
<path d="M245.257 179.587C245.257 217.477 214.746 248.192 177.108 248.192C139.471 248.192 108.959 217.477 108.959 179.587C108.959 141.698 139.471 110.983 177.108 110.983C214.746 110.983 245.257 141.698 245.257 179.587Z" fill="#F1EDFD"/>
<path fill-rule="evenodd" clip-rule="evenodd" d="M177.108 223.856C201.395 223.856 221.083 204.036 221.083 179.587C221.083 155.138 201.395 135.319 177.108 135.319C152.822 135.319 133.134 155.138 133.134 179.587C133.134 204.036 152.822 223.856 177.108 223.856ZM177.108 248.192C214.746 248.192 245.257 217.477 245.257 179.587C245.257 141.698 214.746 110.983 177.108 110.983C139.471 110.983 108.959 141.698 108.959 179.587C108.959 217.477 139.471 248.192 177.108 248.192Z" fill="#313245"/>
<ellipse cx="198.431" cy="180.348" rx="11.2409" ry="11.3161" fill="#6649F8"/>
<path fill-rule="evenodd" clip-rule="evenodd" d="M174.765 141.12C165.387 141.986 155.497 145.339 141.409 152.304L130.615 129.894C145.771 122.401 158.799 117.556 172.53 116.287C186.363 115.009 199.787 117.459 215.631 122.628L208.087 146.364C193.919 141.741 184.042 140.263 174.765 141.12Z" fill="#313245"/>
</svg>
