<svg width="336" height="49" viewBox="0 0 336 49" fill="none" xmlns="http://www.w3.org/2000/svg">
<path d="M33.8205 9.25002C33.8205 14.3587 29.7067 18.5 24.632 18.5C19.5572 18.5 15.4434 14.3587 15.4434 9.25002C15.4434 4.14138 19.5572 0 24.632 0C29.7067 0 33.8205 4.14138 33.8205 9.25002Z" fill="#F1EDFD"/>
<path fill-rule="evenodd" clip-rule="evenodd" d="M24.632 15.2188C27.9065 15.2188 30.5611 12.5465 30.5611 9.25002C30.5611 5.95353 27.9065 3.28121 24.632 3.28121C21.3574 3.28121 18.7028 5.95353 18.7028 9.25002C18.7028 12.5465 21.3574 15.2188 24.632 15.2188ZM24.632 18.5C29.7067 18.5 33.8205 14.3587 33.8205 9.25002C33.8205 4.14138 29.7067 0 24.632 0C19.5572 0 15.4434 4.14138 15.4434 9.25002C15.4434 14.3587 19.5572 18.5 24.632 18.5Z" fill="#313245"/>
<ellipse cx="27.5068" cy="9.35257" rx="1.51563" ry="1.52576" fill="#6649F8"/>
<path fill-rule="evenodd" clip-rule="evenodd" d="M24.3161 4.06341C23.0516 4.18023 21.7181 4.63224 19.8186 5.57142L18.3633 2.54985C20.4068 1.53952 22.1633 0.88622 24.0147 0.715169C25.8798 0.542854 27.6898 0.87313 29.826 1.57011L28.8088 4.7704C26.8986 4.14714 25.5668 3.94785 24.3161 4.06341Z" fill="#313245"/>
<path fill-rule="evenodd" clip-rule="evenodd" d="M42.7995 25.4246C45.6455 24.5396 47.9999 21.712 47.9999 18.3605C47.9999 14.3004 44.6723 11.009 40.9042 11.009C37.1361 11.009 33.8086 14.3004 33.8086 18.3605C33.8086 21.4876 35.8936 24.1587 38.4481 25.2211V36.5048C38.4481 36.6544 38.5097 36.7973 38.6185 36.9002L40.655 38.825C40.8697 39.0279 41.2073 39.0234 41.4164 38.8148L45.1578 35.0821C45.3709 34.8694 45.3709 34.5246 45.1578 34.3119L43.337 32.4954C43.1239 32.2828 43.1239 31.938 43.337 31.7253L45.84 29.2281C46.0532 29.0155 46.0532 28.6707 45.84 28.458L42.7995 25.4246Z" fill="#6649F8"/>
<path d="M34.9998 36.5088C35.0112 37.0828 34.6236 37.6525 34.0775 37.6525H4.04332C0.269783 37.6525 -0.501731 35.6046 0.269829 32.3665C1.82496 25.84 11.1253 19.6525 19.9916 19.6525C24.4214 19.6525 28.5368 20.9612 31.9514 23.2026C32.0625 23.2756 32.1534 23.3775 32.2202 23.4961C32.8627 24.6364 33.6927 25.6434 34.673 26.459C34.8745 26.6267 34.9989 26.8787 34.9989 27.1488V36.4262C34.9989 36.4538 34.9992 36.4813 34.9998 36.5088Z" fill="#313245"/>
<path d="M22.5515 9.25002C22.5515 14.3587 18.4376 18.5 13.3629 18.5C8.28819 18.5 4.17432 14.3587 4.17432 9.25002C4.17432 4.14138 8.28819 0 13.3629 0C18.4376 0 22.5515 4.14138 22.5515 9.25002Z" fill="#F1EDFD"/>
<path fill-rule="evenodd" clip-rule="evenodd" d="M13.3629 15.2188C16.6375 15.2188 19.2921 12.5465 19.2921 9.25002C19.2921 5.95353 16.6375 3.28121 13.3629 3.28121C10.0883 3.28121 7.43373 5.95353 7.43373 9.25002C7.43373 12.5465 10.0883 15.2188 13.3629 15.2188ZM13.3629 18.5C18.4376 18.5 22.5515 14.3587 22.5515 9.25002C22.5515 4.14138 18.4376 0 13.3629 0C8.28819 0 4.17432 4.14138 4.17432 9.25002C4.17432 14.3587 8.28819 18.5 13.3629 18.5Z" fill="#313245"/>
<ellipse cx="16.2378" cy="9.35257" rx="1.51563" ry="1.52576" fill="#6649F8"/>
<path fill-rule="evenodd" clip-rule="evenodd" d="M13.047 4.06341C11.7826 4.18023 10.4491 4.63224 8.54952 5.57142L7.09424 2.54985C9.13772 1.53952 10.8943 0.88622 12.7457 0.715169C14.6108 0.542854 16.4208 0.87313 18.557 1.57011L17.5398 4.7704C15.6296 4.14714 14.2978 3.94785 13.047 4.06341Z" fill="#313245"/>
<path d="M56.7036 37.6525V5.15251H72.1036C78.2536 5.15251 82.7036 9.55251 82.7036 15.6525C82.7036 21.7025 78.0036 26.0525 71.5036 26.0525H64.1036V37.6525H56.7036ZM64.1036 20.6525H70.8036C73.2036 20.6525 74.9036 18.8025 74.9036 16.2525C74.9036 13.7025 73.2036 11.8525 70.8036 11.8525H64.1036V20.6525Z" fill="#313245"/>
<path d="M93.4028 25.8525C93.4028 25.9525 92.6528 26.0525 91.7028 26.2525L87.9028 27.0525C86.5028 27.3525 85.7028 28.2525 85.7028 29.4525C85.7028 30.8025 86.7028 31.7525 88.5028 31.7525C91.1028 31.7525 93.4028 29.6525 93.4028 26.2525V25.8525ZM78.3028 30.8525C78.3028 27.6525 80.8028 24.8025 84.3028 24.0525L92.5028 22.3525C93.1028 22.2525 93.4028 21.8525 93.4028 21.4525C93.4028 19.7025 91.9528 18.4525 89.9028 18.4525C87.9028 18.4525 86.3028 19.8025 86.1028 21.6525L79.3028 19.2525C80.4528 15.0525 84.7528 12.0525 89.6028 12.0525C95.8528 12.0525 100.403 16.0025 100.403 21.4525V32.6525L100.503 37.6525H95.0028L93.9028 34.7525C92.3028 36.9025 89.6528 38.2525 86.5028 38.2525C81.7528 38.2525 78.3028 35.1525 78.3028 30.8525Z" fill="#313245"/>
<path d="M106.71 28.5525C106.81 30.7525 108.61 32.3525 110.91 32.3525C112.66 32.3525 113.91 31.4025 113.91 30.0525C113.91 25.6525 99.9099 27.2525 99.9099 19.0525C99.9099 14.7525 103.86 11.9525 109.81 11.9525C116.16 11.9525 120.71 15.0025 120.91 19.2525L113.11 20.8525C113.11 18.8525 111.81 17.7525 109.61 17.7525C107.86 17.7525 106.91 18.5525 106.91 19.6525C106.91 24.0525 121.31 22.2525 121.31 30.4525C121.31 35.0525 116.71 38.3525 110.31 38.3525C103.91 38.3525 98.9099 35.2525 98.5099 30.2525L106.71 28.5525Z" fill="#313245"/>
<path d="M127.405 28.5525C127.505 30.7525 129.305 32.3525 131.605 32.3525C133.355 32.3525 134.605 31.4025 134.605 30.0525C134.605 25.6525 120.605 27.2525 120.605 19.0525C120.605 14.7525 124.555 11.9525 130.505 11.9525C136.855 11.9525 141.405 15.0025 141.605 19.2525L133.805 20.8525C133.805 18.8525 132.505 17.7525 130.305 17.7525C128.555 17.7525 127.605 18.5525 127.605 19.6525C127.605 24.0525 142.005 22.2525 142.005 30.4525C142.005 35.0525 137.405 38.3525 131.005 38.3525C124.605 38.3525 119.605 35.2525 119.205 30.2525L127.405 28.5525Z" fill="#313245"/>
<path d="M141.5 3.65251H148.5V21.6525L155.9 12.6525H164.9L155.85 22.5525L165.9 37.6525H157.3L151.2 27.6025L148.5 30.5525V37.6525H141.5V3.65251Z" fill="#313245"/>
<path d="M171.602 38.2525C164.352 38.2525 159.102 32.7525 159.102 25.1525C159.102 17.5525 164.302 12.0525 171.502 12.0525C178.502 12.0525 183.602 17.5525 183.602 25.1525C183.602 25.8525 183.552 26.3525 183.502 26.7525H166.352C166.902 29.7525 169.002 31.7525 171.702 31.7525C173.752 31.7525 175.652 30.5525 176.202 28.8525L183.202 31.0525C181.602 35.2525 177.002 38.2525 171.602 38.2525ZM166.502 22.7525H176.302C175.802 20.3525 173.852 18.5525 171.452 18.5525C169.052 18.5525 167.202 20.2525 166.502 22.7525Z" fill="#313245"/>
<path d="M178.907 12.6525H186.707L192.007 28.6525L196.607 12.6525H204.307L193.807 41.2525C192.257 45.4525 189.507 47.9025 186.107 48.0525L182.807 41.8525C185.007 41.8525 187.157 40.5025 188.007 38.6525L188.807 36.8525L178.907 12.6525Z" fill="#313245"/>
<path d="M207.188 37.6525V5.15251H230.388V11.8525H214.588V18.4525H227.588V23.6525H214.588V30.8525H230.988V37.6525H207.188Z" fill="#313245"/>
<path d="M245.985 24.0525C245.985 21.0025 244.235 18.8525 241.685 18.8525C238.835 18.8525 236.685 21.4025 236.685 24.8525V37.6525H229.685V12.6525H235.085L236.585 16.5525C237.785 13.9025 240.985 12.0525 244.285 12.0525C249.435 12.0525 252.985 16.6025 252.985 22.8525V37.6525H245.985V24.0525Z" fill="#313245"/>
<path d="M264.366 38.2525C257.116 38.2525 251.866 32.7525 251.866 25.1525C251.866 17.5525 257.066 12.0525 264.266 12.0525C271.266 12.0525 276.366 17.5525 276.366 25.1525C276.366 25.8525 276.316 26.3525 276.266 26.7525H259.116C259.666 29.7525 261.766 31.7525 264.466 31.7525C266.516 31.7525 268.416 30.5525 268.966 28.8525L275.966 31.0525C274.366 35.2525 269.766 38.2525 264.366 38.2525ZM259.266 22.7525H269.066C268.566 20.3525 266.616 18.5525 264.216 18.5525C261.816 18.5525 259.966 20.2525 259.266 22.7525Z" fill="#313245"/>
<path d="M275.47 37.6525V12.6525H280.87L282.22 16.2525C283.47 13.6025 285.57 12.0525 288.27 12.0525C289.22 12.0525 290.07 12.2525 290.87 12.6525L289.67 20.1525C289.22 19.9525 288.42 19.8525 287.67 19.8525C284.62 19.8525 282.47 21.9525 282.47 25.0525V37.6525H275.47Z" fill="#313245"/>
<path d="M299.593 48.0525C293.443 48.0525 288.293 44.3525 287.393 39.3525L294.793 37.4525C295.193 40.0025 297.343 41.8525 299.993 41.8525C302.993 41.8525 305.193 39.5525 305.193 36.4525V32.8025C303.493 34.8525 301.093 36.0525 298.293 36.0525C292.193 36.0525 287.793 31.1025 287.793 24.2525C287.793 17.1525 292.043 12.0525 297.893 12.0525C301.043 12.0525 303.693 13.5025 305.543 16.0025L306.793 12.6525H312.193V35.4525C312.193 42.8025 306.943 48.0525 299.593 48.0525ZM295.193 25.0525C295.193 28.6525 297.343 31.2525 300.293 31.2525C303.243 31.2525 305.393 28.6525 305.393 25.0525C305.393 21.4525 303.243 18.8525 300.293 18.8525C297.343 18.8525 295.193 21.4525 295.193 25.0525Z" fill="#313245"/>
<path d="M310.215 12.6525H318.015L323.315 28.6525L327.915 12.6525H335.615L325.115 41.2525C323.565 45.4525 320.815 47.9025 317.415 48.0525L314.115 41.8525C316.315 41.8525 318.465 40.5025 319.315 38.6525L320.115 36.8525L310.215 12.6525Z" fill="#313245"/>
<path d="M201.5 38.6525C197.153 38.6525 194 35.2747 194 30.6525C194 26.0303 197.153 22.6525 201.5 22.6525C205.847 22.6525 209 26.0303 209 30.6525C209 35.2747 205.847 38.6525 201.5 38.6525Z" fill="#6649F8"/>
</svg>
