<svg width="103" height="20" viewBox="0 0 103 20" fill="none" xmlns="http://www.w3.org/2000/svg">
<path d="M38.6548 9.99999C38.6548 14.8627 34.7428 18.8048 29.9172 18.8048C25.0916 18.8048 21.1797 14.8627 21.1797 9.99999C21.1797 5.13723 25.0916 1.19519 29.9172 1.19519C34.7428 1.19519 38.6548 5.13723 38.6548 9.99999Z" fill="#F1EDFD"/>
<path fill-rule="evenodd" clip-rule="evenodd" d="M29.9172 15.6815C33.0311 15.6815 35.5553 13.1378 35.5553 9.99999C35.5553 6.86217 33.0311 4.31846 29.9172 4.31846C26.8034 4.31846 24.2791 6.86217 24.2791 9.99999C24.2791 13.1378 26.8034 15.6815 29.9172 15.6815ZM29.9172 18.8048C34.7428 18.8048 38.6548 14.8627 38.6548 9.99999C38.6548 5.13723 34.7428 1.19519 29.9172 1.19519C25.0916 1.19519 21.1797 5.13723 21.1797 9.99999C21.1797 14.8627 25.0916 18.8048 29.9172 18.8048Z" fill="#AAADC4"/>
<ellipse cx="32.6512" cy="10.0976" rx="1.44123" ry="1.45232" fill="#6649F8"/>
<path fill-rule="evenodd" clip-rule="evenodd" d="M29.5947 5.03415C28.7577 5.11105 27.8884 5.34434 26.8214 5.78425C26.0218 6.11392 25.0871 5.80149 24.7102 5.02308C24.3364 4.2513 24.6529 3.31464 25.4422 2.97939C26.782 2.41032 28.0229 2.04234 29.3132 1.92378C30.605 1.80508 31.8684 1.9431 33.2488 2.28638C34.0825 2.49371 34.5297 3.37945 34.2681 4.1978C34.005 5.02134 33.1251 5.45999 32.2828 5.2651C31.2478 5.02564 30.4031 4.95986 29.5947 5.03415Z" fill="#AAADC4"/>
<path d="M19.8333 19.594C25.0876 19.594 29.347 15.3017 29.347 10.007C29.347 4.71227 25.0876 0.420044 19.8333 0.420044C14.579 0.420044 10.3196 4.71227 10.3196 10.007C10.3196 15.3017 14.579 19.594 19.8333 19.594Z" fill="#313245"/>
<path d="M28.5586 9.99999C28.5586 14.8627 24.6466 18.8048 19.821 18.8048C14.9954 18.8048 11.0835 14.8627 11.0835 9.99999C11.0835 5.13723 14.9954 1.19519 19.821 1.19519C24.6466 1.19519 28.5586 5.13723 28.5586 9.99999Z" fill="#F1EDFD"/>
<path fill-rule="evenodd" clip-rule="evenodd" d="M19.8442 15.6815C22.9581 15.6815 25.4823 13.1378 25.4823 9.99999C25.4823 6.86217 22.9581 4.31846 19.8442 4.31846C16.7304 4.31846 14.2061 6.86217 14.2061 9.99999C14.2061 13.1378 16.7304 15.6815 19.8442 15.6815ZM19.8442 18.8048C24.6698 18.8048 28.5818 14.8627 28.5818 9.99999C28.5818 5.13723 24.6698 1.19519 19.8442 1.19519C15.0186 1.19519 11.1067 5.13723 11.1067 9.99999C11.1067 14.8627 15.0186 18.8048 19.8442 18.8048Z" fill="#AAADC4"/>
<ellipse cx="22.6209" cy="10.0976" rx="1.44123" ry="1.45232" fill="#6649F8"/>
<path fill-rule="evenodd" clip-rule="evenodd" d="M19.3293 5.27118C18.5046 5.43598 17.664 5.75983 16.6481 6.31018C15.8875 6.72223 14.9268 6.51068 14.4715 5.77694C14.0192 5.04816 14.2374 4.08137 14.9886 3.66425C16.261 2.95774 17.4562 2.46139 18.7263 2.20757C19.9995 1.95313 21.2712 1.95734 22.6808 2.15355C23.5301 2.27177 24.0654 3.10459 23.8904 3.94566C23.7141 4.79279 22.8848 5.32248 22.0275 5.21751C20.973 5.08838 20.1258 5.112 19.3293 5.27118Z" fill="#AAADC4"/>
<path d="M9.9312 19.594C15.1855 19.594 19.4449 15.3017 19.4449 10.007C19.4449 4.71227 15.1855 0.420044 9.9312 0.420044C4.67692 0.420044 0.41748 4.71227 0.41748 10.007C0.41748 15.3017 4.67692 19.594 9.9312 19.594Z" fill="#313245"/>
<path fill-rule="evenodd" clip-rule="evenodd" d="M9.93114 15.6815C13.045 15.6815 15.5693 13.1378 15.5693 9.99999C15.5693 6.86217 13.045 4.31846 9.93114 4.31846C6.81729 4.31846 4.29302 6.86217 4.29302 9.99999C4.29302 13.1378 6.81729 15.6815 9.93114 15.6815ZM9.93114 18.8048C14.7567 18.8048 18.6687 14.8627 18.6687 9.99999C18.6687 5.13723 14.7567 1.19519 9.93114 1.19519C5.10553 1.19519 1.1936 5.13723 1.1936 9.99999C1.1936 14.8627 5.10553 18.8048 9.93114 18.8048Z" fill="#AAADC4"/>
<path fill-rule="evenodd" clip-rule="evenodd" d="M47.124 15.5801C50.1366 15.5801 52.3462 13.3989 52.5097 10.3635V15.1231C52.5097 15.2675 52.6274 15.3846 52.7725 15.3846H56.8567C59.7682 15.3846 61.9246 13.242 62.0498 10.2742V15.1231C62.0498 15.2675 62.1675 15.3846 62.3127 15.3846H66.3968C69.3973 15.3846 71.5957 13.1092 71.5957 9.99997C71.5957 6.85506 69.3451 4.6154 66.2003 4.6154H62.3127C62.1675 4.6154 62.0498 4.73247 62.0498 4.87689V9.72602C61.923 6.7258 59.7128 4.6154 56.6601 4.6154H52.7725C52.6274 4.6154 52.5097 4.73247 52.5097 4.87689V9.63645C52.3462 6.60107 50.1366 4.4198 47.124 4.4198C43.9924 4.4198 41.7285 6.77675 41.7285 9.99997C41.7285 13.2232 43.9924 15.5801 47.124 15.5801ZM44.4594 9.96737C44.4594 8.14514 45.5947 6.87609 47.124 6.87609C48.6533 6.87609 49.7886 8.14514 49.7886 9.96737C49.7886 11.7576 48.6527 12.8843 47.124 12.8843C45.5952 12.8843 44.4594 11.7576 44.4594 9.96737ZM55.1095 12.732V6.97389H56.5946C58.1766 6.97389 59.3248 8.21435 59.3248 9.98367C59.3248 11.741 58.2219 12.732 56.7257 12.732H55.1095ZM66.1347 6.97389H64.6496V12.732H66.2658C67.762 12.732 68.8649 11.741 68.8649 9.98367C68.8649 8.21435 67.7167 6.97389 66.1347 6.97389Z" fill="#AAADC4"/>
<path fill-rule="evenodd" clip-rule="evenodd" d="M79.5083 4.6154H75.6207C75.4756 4.6154 75.3579 4.73247 75.3579 4.87689V15.1231C75.3579 15.2675 75.4756 15.3846 75.6207 15.3846H79.7049C82.6164 15.3846 84.7728 13.242 84.898 10.2742V15.1231C84.898 15.2675 85.0157 15.3846 85.1608 15.3846H92.6084C92.7535 15.3846 92.8712 15.2675 92.8712 15.1231V12.9935C92.8712 12.849 92.7535 12.732 92.6084 12.732H87.4978V10.995H91.582C91.7271 10.995 91.8448 10.8779 91.8448 10.7335V9.12545C91.8448 8.98104 91.7271 8.86396 91.582 8.86396H87.4978V6.97389H92.7401L95.4123 15.2035C95.4474 15.3114 95.5484 15.3846 95.6624 15.3846H98.5528C98.6668 15.3846 98.7678 15.3114 98.8029 15.2035L102.13 4.95728C102.185 4.78841 102.058 4.6154 101.88 4.6154H99.6322C99.5144 4.6154 99.411 4.69339 99.3792 4.80624L97.172 12.4574L94.902 4.8044C94.8696 4.69246 94.7666 4.6154 94.6495 4.6154H85.1608C85.0157 4.6154 84.898 4.73247 84.898 4.87689V9.72605C84.7712 6.72581 82.561 4.6154 79.5083 4.6154ZM79.4428 6.97389H77.9577V12.732H79.5738C81.0701 12.732 82.1729 11.741 82.1729 9.98367C82.1729 8.21435 81.0248 6.97389 79.4428 6.97389Z" fill="#AAADC4"/>
<ellipse cx="73.0673" cy="13.7491" rx="1.654" ry="1.65661" fill="#6649F8"/>
</svg>
